M48
; DRILL file {KiCad 8.0.3} date 2024-08-13T20:24:01+0200
; FORMAT={-:-/ absolute / metric / decimal}
; #@! TF.CreationDate,2024-08-13T20:24:01+02:00
; #@! TF.GenerationSoftware,Kicad,Pcbnew,8.0.3
; #@! TF.FileFunction,Plated,1,2,PTH
FMAT,2
METRIC
; #@! TA.AperFunction,Plated,PTH,ViaDrill
T1C0.300
; #@! TA.AperFunction,Plated,PTH,ComponentDrill
T2C0.950
; #@! TA.AperFunction,Plated,PTH,ComponentDrill
T3C1.000
; #@! TA.AperFunction,Plated,PTH,ViaDrill
T4C1.100
; #@! TA.AperFunction,Plated,PTH,ComponentDrill
T5C1.300
%
G90
G05
T1
X155.5Y-102.5
X155.5Y-122.0
X156.5Y-105.0
X157.58Y-122.25
X160.87Y-96.21
T2
X152.0Y-102.28
X152.009Y-104.2
X155.23Y-95.96
X155.23Y-98.5
X157.77Y-95.96
X157.77Y-98.5
X160.3Y-113.88
X162.2Y-113.88
T3
X148.886Y-96.981
X148.886Y-99.521
X148.886Y-102.061
X148.886Y-104.601
X148.886Y-107.141
X148.886Y-109.681
X148.886Y-112.221
X148.89Y-117.3
X148.89Y-119.84
X148.89Y-122.38
X148.89Y-124.92
X164.09Y-117.3
X164.09Y-119.84
X164.09Y-122.38
X164.09Y-124.92
X164.108Y-96.981
X164.108Y-99.521
X164.108Y-102.061
X164.108Y-104.601
X164.108Y-107.141
X164.108Y-109.681
X164.108Y-112.221
T4
X148.886Y-114.761
X164.108Y-114.761
T5
X153.17Y-119.339
X159.67Y-119.339
M30
