%TF.GenerationSoftware,KiCad,Pcbnew,8.0.3*%
%TF.CreationDate,2024-08-13T20:23:53+02:00*%
%TF.ProjectId,xiao_nrf52840_breakout,7869616f-5f6e-4726-9635-323834305f62,rev?*%
%TF.SameCoordinates,Original*%
%TF.FileFunction,Copper,L2,Bot*%
%TF.FilePolarity,Positive*%
%FSLAX46Y46*%
G04 Gerber Fmt 4.6, Leading zero omitted, Abs format (unit mm)*
G04 Created by KiCad (PCBNEW 8.0.3) date 2024-08-13 20:23:53*
%MOMM*%
%LPD*%
G01*
G04 APERTURE LIST*
%TA.AperFunction,ComponentPad*%
%ADD10C,1.700000*%
%TD*%
%TA.AperFunction,ComponentPad*%
%ADD11O,1.700000X1.700000*%
%TD*%
%TA.AperFunction,ComponentPad*%
%ADD12R,1.700000X1.700000*%
%TD*%
%TA.AperFunction,ComponentPad*%
%ADD13C,2.250000*%
%TD*%
%TA.AperFunction,ComponentPad*%
%ADD14R,2.250000X2.250000*%
%TD*%
%TA.AperFunction,ComponentPad*%
%ADD15R,1.400000X1.700000*%
%TD*%
%TA.AperFunction,ComponentPad*%
%ADD16R,1.700000X1.400000*%
%TD*%
%TA.AperFunction,ViaPad*%
%ADD17C,1.300000*%
%TD*%
%TA.AperFunction,ViaPad*%
%ADD18C,0.600000*%
%TD*%
%TA.AperFunction,Conductor*%
%ADD19C,0.200000*%
%TD*%
%TA.AperFunction,Conductor*%
%ADD20C,0.400000*%
%TD*%
G04 APERTURE END LIST*
D10*
%TO.P,J6,1,Pin_1*%
%TO.N,SWCLK*%
X155229912Y-95960000D03*
D11*
%TO.P,J6,2,Pin_2*%
%TO.N,RESET*%
X157769912Y-95960000D03*
%TO.P,J6,3,Pin_3*%
%TO.N,SWDIO*%
X155229912Y-98500000D03*
D12*
%TO.P,J6,4,Pin_4*%
%TO.N,GND*%
X157769912Y-98500000D03*
%TD*%
D10*
%TO.P,J5,1,Pin_1*%
%TO.N,Net-(J4-Pin_1)*%
X164090000Y-117300000D03*
D11*
%TO.P,J5,2,Pin_2*%
%TO.N,Net-(J5-Pin_2)*%
X164090000Y-119840000D03*
D12*
%TO.P,J5,3,Pin_3*%
%TO.N,GND*%
X164090000Y-122380000D03*
D11*
%TO.P,J5,4,Pin_4*%
%TO.N,BAT+*%
X164090000Y-124920000D03*
%TD*%
D13*
%TO.P,SW1,1,1*%
%TO.N,RESET*%
X153169776Y-119338705D03*
D14*
%TO.P,SW1,2,2*%
%TO.N,GND*%
X159669776Y-119338705D03*
%TD*%
D10*
%TO.P,J7,1,Pin_1*%
%TO.N,SWCLK*%
X148890000Y-117300000D03*
D11*
%TO.P,J7,2,Pin_2*%
%TO.N,SWDIO*%
X148890000Y-119840000D03*
%TO.P,J7,3,Pin_3*%
%TO.N,RESET*%
X148890000Y-122380000D03*
%TO.P,J7,4,Pin_4*%
%TO.N,BAT-*%
X148890000Y-124920000D03*
%TD*%
D15*
%TO.P,J8,1,Pin_1*%
%TO.N,Net-(J5-Pin_2)*%
X160300000Y-113880000D03*
%TD*%
D16*
%TO.P,J9,1,Pin_1*%
%TO.N,BAT-*%
X152000000Y-102280000D03*
%TD*%
%TO.P,J10,1,Pin_1*%
%TO.N,BAT+*%
X152009409Y-104200000D03*
%TD*%
D10*
%TO.P,J3,1,Pin_1*%
%TO.N,Net-(J3-Pin_1)*%
X164108391Y-96981453D03*
D12*
%TO.P,J3,2,Pin_2*%
%TO.N,Net-(J3-Pin_2)*%
X164108391Y-99521453D03*
D11*
%TO.P,J3,3,Pin_3*%
%TO.N,Net-(J3-Pin_3)*%
X164108391Y-102061453D03*
%TO.P,J3,4,Pin_4*%
%TO.N,Net-(J3-Pin_4)*%
X164108391Y-104601453D03*
%TO.P,J3,5,Pin_5*%
%TO.N,Net-(J3-Pin_5)*%
X164108391Y-107141453D03*
%TO.P,J3,6,Pin_6*%
%TO.N,Net-(J3-Pin_6)*%
X164108391Y-109681453D03*
%TO.P,J3,7,Pin_7*%
%TO.N,Net-(J3-Pin_7)*%
X164108391Y-112221453D03*
%TD*%
D15*
%TO.P,J4,1,Pin_1*%
%TO.N,Net-(J4-Pin_1)*%
X162200000Y-113880000D03*
%TD*%
D10*
%TO.P,J2,1,Pin_1*%
%TO.N,Net-(J2-Pin_1)*%
X148886092Y-112221453D03*
D11*
%TO.P,J2,2,Pin_2*%
%TO.N,Net-(J2-Pin_2)*%
X148886092Y-109681453D03*
%TO.P,J2,3,Pin_3*%
%TO.N,Net-(J2-Pin_3)*%
X148886092Y-107141453D03*
%TO.P,J2,4,Pin_4*%
%TO.N,Net-(J2-Pin_4)*%
X148886092Y-104601453D03*
%TO.P,J2,5,Pin_5*%
%TO.N,Net-(J2-Pin_5)*%
X148886092Y-102061453D03*
%TO.P,J2,6,Pin_6*%
%TO.N,Net-(J2-Pin_6)*%
X148886092Y-99521453D03*
%TO.P,J2,7,Pin_7*%
%TO.N,Net-(J2-Pin_7)*%
X148886092Y-96981453D03*
%TD*%
D17*
%TO.N,*%
X148886092Y-114761453D03*
X164108391Y-114761453D03*
D18*
%TO.N,RESET*%
X160870000Y-96210000D03*
%TO.N,BAT-*%
X155500000Y-122000000D03*
X155500000Y-102500000D03*
%TO.N,BAT+*%
X156500000Y-105000000D03*
X157580000Y-122250000D03*
%TD*%
D19*
%TO.N,RESET*%
X161000000Y-104000000D02*
X161000000Y-110500000D01*
X158707760Y-112792240D02*
X158707760Y-115707760D01*
X161000000Y-110500000D02*
X158707760Y-112792240D01*
X155282118Y-125282118D02*
X153500000Y-123500000D01*
X162000000Y-118500000D02*
X162000000Y-120789146D01*
X153500000Y-123500000D02*
X153500000Y-122500000D01*
X160600000Y-117100000D02*
X162000000Y-118500000D01*
X162000000Y-120789146D02*
X157507028Y-125282118D01*
X153500000Y-122500000D02*
X154000000Y-122000000D01*
X160870000Y-103870000D02*
X161000000Y-104000000D01*
X160870000Y-96210000D02*
X160870000Y-103870000D01*
X154000000Y-122000000D02*
X154000000Y-120168929D01*
X160100000Y-117100000D02*
X160600000Y-117100000D01*
X157507028Y-125282118D02*
X155282118Y-125282118D01*
X158707760Y-115707760D02*
X160100000Y-117100000D01*
X154000000Y-120168929D02*
X153169776Y-119338705D01*
%TO.N,SWDIO*%
X154000000Y-99729912D02*
X154000000Y-106000000D01*
X152000000Y-108000000D02*
X152000000Y-116730000D01*
X152000000Y-116730000D02*
X148890000Y-119840000D01*
X155229912Y-98500000D02*
X154000000Y-99729912D01*
X154000000Y-106000000D02*
X152000000Y-108000000D01*
D20*
%TO.N,BAT-*%
X155500000Y-102500000D02*
X155620000Y-102620000D01*
X155620000Y-102620000D02*
X155620000Y-121880000D01*
X155620000Y-121880000D02*
X155500000Y-122000000D01*
%TO.N,BAT+*%
X157000000Y-121670000D02*
X157580000Y-122250000D01*
X157000000Y-105500000D02*
X157000000Y-121670000D01*
X156500000Y-105000000D02*
X157000000Y-105500000D01*
%TD*%
M02*
