%TF.GenerationSoftware,KiCad,Pcbnew,8.0.3*%
%TF.CreationDate,2024-08-13T20:23:53+02:00*%
%TF.ProjectId,xiao_nrf52840_breakout,7869616f-5f6e-4726-9635-323834305f62,rev?*%
%TF.SameCoordinates,Original*%
%TF.FileFunction,Legend,Bot*%
%TF.FilePolarity,Positive*%
%FSLAX46Y46*%
G04 Gerber Fmt 4.6, Leading zero omitted, Abs format (unit mm)*
G04 Created by KiCad (PCBNEW 8.0.3) date 2024-08-13 20:23:53*
%MOMM*%
%LPD*%
G01*
G04 APERTURE LIST*
%ADD10C,0.200000*%
%ADD11C,1.700000*%
%ADD12O,1.700000X1.700000*%
%ADD13R,1.700000X1.700000*%
%ADD14C,2.250000*%
%ADD15R,2.250000X2.250000*%
%ADD16R,1.400000X1.700000*%
%ADD17R,1.700000X1.400000*%
G04 APERTURE END LIST*
D10*
X154781219Y-100036339D02*
X155781219Y-100703005D01*
X154781219Y-100703005D02*
X155781219Y-100036339D01*
X155781219Y-101083958D02*
X154781219Y-101083958D01*
X155495504Y-101512529D02*
X155495504Y-101988719D01*
X155781219Y-101417291D02*
X154781219Y-101750624D01*
X154781219Y-101750624D02*
X155781219Y-102083957D01*
X154781219Y-102607767D02*
X154781219Y-102798243D01*
X154781219Y-102798243D02*
X154828838Y-102893481D01*
X154828838Y-102893481D02*
X154924076Y-102988719D01*
X154924076Y-102988719D02*
X155114552Y-103036338D01*
X155114552Y-103036338D02*
X155447885Y-103036338D01*
X155447885Y-103036338D02*
X155638361Y-102988719D01*
X155638361Y-102988719D02*
X155733600Y-102893481D01*
X155733600Y-102893481D02*
X155781219Y-102798243D01*
X155781219Y-102798243D02*
X155781219Y-102607767D01*
X155781219Y-102607767D02*
X155733600Y-102512529D01*
X155733600Y-102512529D02*
X155638361Y-102417291D01*
X155638361Y-102417291D02*
X155447885Y-102369672D01*
X155447885Y-102369672D02*
X155114552Y-102369672D01*
X155114552Y-102369672D02*
X154924076Y-102417291D01*
X154924076Y-102417291D02*
X154828838Y-102512529D01*
X154828838Y-102512529D02*
X154781219Y-102607767D01*
X155114552Y-104226815D02*
X155781219Y-104226815D01*
X155209790Y-104226815D02*
X155162171Y-104274434D01*
X155162171Y-104274434D02*
X155114552Y-104369672D01*
X155114552Y-104369672D02*
X155114552Y-104512529D01*
X155114552Y-104512529D02*
X155162171Y-104607767D01*
X155162171Y-104607767D02*
X155257409Y-104655386D01*
X155257409Y-104655386D02*
X155781219Y-104655386D01*
X155781219Y-105131577D02*
X155114552Y-105131577D01*
X155305028Y-105131577D02*
X155209790Y-105179196D01*
X155209790Y-105179196D02*
X155162171Y-105226815D01*
X155162171Y-105226815D02*
X155114552Y-105322053D01*
X155114552Y-105322053D02*
X155114552Y-105417291D01*
X155114552Y-105607768D02*
X155114552Y-105988720D01*
X155781219Y-105750625D02*
X154924076Y-105750625D01*
X154924076Y-105750625D02*
X154828838Y-105798244D01*
X154828838Y-105798244D02*
X154781219Y-105893482D01*
X154781219Y-105893482D02*
X154781219Y-105988720D01*
X154781219Y-106798244D02*
X154781219Y-106322054D01*
X154781219Y-106322054D02*
X155257409Y-106274435D01*
X155257409Y-106274435D02*
X155209790Y-106322054D01*
X155209790Y-106322054D02*
X155162171Y-106417292D01*
X155162171Y-106417292D02*
X155162171Y-106655387D01*
X155162171Y-106655387D02*
X155209790Y-106750625D01*
X155209790Y-106750625D02*
X155257409Y-106798244D01*
X155257409Y-106798244D02*
X155352647Y-106845863D01*
X155352647Y-106845863D02*
X155590742Y-106845863D01*
X155590742Y-106845863D02*
X155685980Y-106798244D01*
X155685980Y-106798244D02*
X155733600Y-106750625D01*
X155733600Y-106750625D02*
X155781219Y-106655387D01*
X155781219Y-106655387D02*
X155781219Y-106417292D01*
X155781219Y-106417292D02*
X155733600Y-106322054D01*
X155733600Y-106322054D02*
X155685980Y-106274435D01*
X154876457Y-107226816D02*
X154828838Y-107274435D01*
X154828838Y-107274435D02*
X154781219Y-107369673D01*
X154781219Y-107369673D02*
X154781219Y-107607768D01*
X154781219Y-107607768D02*
X154828838Y-107703006D01*
X154828838Y-107703006D02*
X154876457Y-107750625D01*
X154876457Y-107750625D02*
X154971695Y-107798244D01*
X154971695Y-107798244D02*
X155066933Y-107798244D01*
X155066933Y-107798244D02*
X155209790Y-107750625D01*
X155209790Y-107750625D02*
X155781219Y-107179197D01*
X155781219Y-107179197D02*
X155781219Y-107798244D01*
X155209790Y-108369673D02*
X155162171Y-108274435D01*
X155162171Y-108274435D02*
X155114552Y-108226816D01*
X155114552Y-108226816D02*
X155019314Y-108179197D01*
X155019314Y-108179197D02*
X154971695Y-108179197D01*
X154971695Y-108179197D02*
X154876457Y-108226816D01*
X154876457Y-108226816D02*
X154828838Y-108274435D01*
X154828838Y-108274435D02*
X154781219Y-108369673D01*
X154781219Y-108369673D02*
X154781219Y-108560149D01*
X154781219Y-108560149D02*
X154828838Y-108655387D01*
X154828838Y-108655387D02*
X154876457Y-108703006D01*
X154876457Y-108703006D02*
X154971695Y-108750625D01*
X154971695Y-108750625D02*
X155019314Y-108750625D01*
X155019314Y-108750625D02*
X155114552Y-108703006D01*
X155114552Y-108703006D02*
X155162171Y-108655387D01*
X155162171Y-108655387D02*
X155209790Y-108560149D01*
X155209790Y-108560149D02*
X155209790Y-108369673D01*
X155209790Y-108369673D02*
X155257409Y-108274435D01*
X155257409Y-108274435D02*
X155305028Y-108226816D01*
X155305028Y-108226816D02*
X155400266Y-108179197D01*
X155400266Y-108179197D02*
X155590742Y-108179197D01*
X155590742Y-108179197D02*
X155685980Y-108226816D01*
X155685980Y-108226816D02*
X155733600Y-108274435D01*
X155733600Y-108274435D02*
X155781219Y-108369673D01*
X155781219Y-108369673D02*
X155781219Y-108560149D01*
X155781219Y-108560149D02*
X155733600Y-108655387D01*
X155733600Y-108655387D02*
X155685980Y-108703006D01*
X155685980Y-108703006D02*
X155590742Y-108750625D01*
X155590742Y-108750625D02*
X155400266Y-108750625D01*
X155400266Y-108750625D02*
X155305028Y-108703006D01*
X155305028Y-108703006D02*
X155257409Y-108655387D01*
X155257409Y-108655387D02*
X155209790Y-108560149D01*
X155114552Y-109607768D02*
X155781219Y-109607768D01*
X154733600Y-109369673D02*
X155447885Y-109131578D01*
X155447885Y-109131578D02*
X155447885Y-109750625D01*
X154781219Y-110322054D02*
X154781219Y-110417292D01*
X154781219Y-110417292D02*
X154828838Y-110512530D01*
X154828838Y-110512530D02*
X154876457Y-110560149D01*
X154876457Y-110560149D02*
X154971695Y-110607768D01*
X154971695Y-110607768D02*
X155162171Y-110655387D01*
X155162171Y-110655387D02*
X155400266Y-110655387D01*
X155400266Y-110655387D02*
X155590742Y-110607768D01*
X155590742Y-110607768D02*
X155685980Y-110560149D01*
X155685980Y-110560149D02*
X155733600Y-110512530D01*
X155733600Y-110512530D02*
X155781219Y-110417292D01*
X155781219Y-110417292D02*
X155781219Y-110322054D01*
X155781219Y-110322054D02*
X155733600Y-110226816D01*
X155733600Y-110226816D02*
X155685980Y-110179197D01*
X155685980Y-110179197D02*
X155590742Y-110131578D01*
X155590742Y-110131578D02*
X155400266Y-110083959D01*
X155400266Y-110083959D02*
X155162171Y-110083959D01*
X155162171Y-110083959D02*
X154971695Y-110131578D01*
X154971695Y-110131578D02*
X154876457Y-110179197D01*
X154876457Y-110179197D02*
X154828838Y-110226816D01*
X154828838Y-110226816D02*
X154781219Y-110322054D01*
X155257409Y-112179197D02*
X155305028Y-112322054D01*
X155305028Y-112322054D02*
X155352647Y-112369673D01*
X155352647Y-112369673D02*
X155447885Y-112417292D01*
X155447885Y-112417292D02*
X155590742Y-112417292D01*
X155590742Y-112417292D02*
X155685980Y-112369673D01*
X155685980Y-112369673D02*
X155733600Y-112322054D01*
X155733600Y-112322054D02*
X155781219Y-112226816D01*
X155781219Y-112226816D02*
X155781219Y-111845864D01*
X155781219Y-111845864D02*
X154781219Y-111845864D01*
X154781219Y-111845864D02*
X154781219Y-112179197D01*
X154781219Y-112179197D02*
X154828838Y-112274435D01*
X154828838Y-112274435D02*
X154876457Y-112322054D01*
X154876457Y-112322054D02*
X154971695Y-112369673D01*
X154971695Y-112369673D02*
X155066933Y-112369673D01*
X155066933Y-112369673D02*
X155162171Y-112322054D01*
X155162171Y-112322054D02*
X155209790Y-112274435D01*
X155209790Y-112274435D02*
X155257409Y-112179197D01*
X155257409Y-112179197D02*
X155257409Y-111845864D01*
X155781219Y-112845864D02*
X155114552Y-112845864D01*
X155305028Y-112845864D02*
X155209790Y-112893483D01*
X155209790Y-112893483D02*
X155162171Y-112941102D01*
X155162171Y-112941102D02*
X155114552Y-113036340D01*
X155114552Y-113036340D02*
X155114552Y-113131578D01*
X155733600Y-113845864D02*
X155781219Y-113750626D01*
X155781219Y-113750626D02*
X155781219Y-113560150D01*
X155781219Y-113560150D02*
X155733600Y-113464912D01*
X155733600Y-113464912D02*
X155638361Y-113417293D01*
X155638361Y-113417293D02*
X155257409Y-113417293D01*
X155257409Y-113417293D02*
X155162171Y-113464912D01*
X155162171Y-113464912D02*
X155114552Y-113560150D01*
X155114552Y-113560150D02*
X155114552Y-113750626D01*
X155114552Y-113750626D02*
X155162171Y-113845864D01*
X155162171Y-113845864D02*
X155257409Y-113893483D01*
X155257409Y-113893483D02*
X155352647Y-113893483D01*
X155352647Y-113893483D02*
X155447885Y-113417293D01*
X155781219Y-114750626D02*
X155257409Y-114750626D01*
X155257409Y-114750626D02*
X155162171Y-114703007D01*
X155162171Y-114703007D02*
X155114552Y-114607769D01*
X155114552Y-114607769D02*
X155114552Y-114417293D01*
X155114552Y-114417293D02*
X155162171Y-114322055D01*
X155733600Y-114750626D02*
X155781219Y-114655388D01*
X155781219Y-114655388D02*
X155781219Y-114417293D01*
X155781219Y-114417293D02*
X155733600Y-114322055D01*
X155733600Y-114322055D02*
X155638361Y-114274436D01*
X155638361Y-114274436D02*
X155543123Y-114274436D01*
X155543123Y-114274436D02*
X155447885Y-114322055D01*
X155447885Y-114322055D02*
X155400266Y-114417293D01*
X155400266Y-114417293D02*
X155400266Y-114655388D01*
X155400266Y-114655388D02*
X155352647Y-114750626D01*
X155781219Y-115226817D02*
X154781219Y-115226817D01*
X155400266Y-115322055D02*
X155781219Y-115607769D01*
X155114552Y-115607769D02*
X155495504Y-115226817D01*
X155781219Y-116179198D02*
X155733600Y-116083960D01*
X155733600Y-116083960D02*
X155685980Y-116036341D01*
X155685980Y-116036341D02*
X155590742Y-115988722D01*
X155590742Y-115988722D02*
X155305028Y-115988722D01*
X155305028Y-115988722D02*
X155209790Y-116036341D01*
X155209790Y-116036341D02*
X155162171Y-116083960D01*
X155162171Y-116083960D02*
X155114552Y-116179198D01*
X155114552Y-116179198D02*
X155114552Y-116322055D01*
X155114552Y-116322055D02*
X155162171Y-116417293D01*
X155162171Y-116417293D02*
X155209790Y-116464912D01*
X155209790Y-116464912D02*
X155305028Y-116512531D01*
X155305028Y-116512531D02*
X155590742Y-116512531D01*
X155590742Y-116512531D02*
X155685980Y-116464912D01*
X155685980Y-116464912D02*
X155733600Y-116417293D01*
X155733600Y-116417293D02*
X155781219Y-116322055D01*
X155781219Y-116322055D02*
X155781219Y-116179198D01*
X155114552Y-117369674D02*
X155781219Y-117369674D01*
X155114552Y-116941103D02*
X155638361Y-116941103D01*
X155638361Y-116941103D02*
X155733600Y-116988722D01*
X155733600Y-116988722D02*
X155781219Y-117083960D01*
X155781219Y-117083960D02*
X155781219Y-117226817D01*
X155781219Y-117226817D02*
X155733600Y-117322055D01*
X155733600Y-117322055D02*
X155685980Y-117369674D01*
X155114552Y-117703008D02*
X155114552Y-118083960D01*
X154781219Y-117845865D02*
X155638361Y-117845865D01*
X155638361Y-117845865D02*
X155733600Y-117893484D01*
X155733600Y-117893484D02*
X155781219Y-117988722D01*
X155781219Y-117988722D02*
X155781219Y-118083960D01*
X155257409Y-119512532D02*
X155305028Y-119655389D01*
X155305028Y-119655389D02*
X155352647Y-119703008D01*
X155352647Y-119703008D02*
X155447885Y-119750627D01*
X155447885Y-119750627D02*
X155590742Y-119750627D01*
X155590742Y-119750627D02*
X155685980Y-119703008D01*
X155685980Y-119703008D02*
X155733600Y-119655389D01*
X155733600Y-119655389D02*
X155781219Y-119560151D01*
X155781219Y-119560151D02*
X155781219Y-119179199D01*
X155781219Y-119179199D02*
X154781219Y-119179199D01*
X154781219Y-119179199D02*
X154781219Y-119512532D01*
X154781219Y-119512532D02*
X154828838Y-119607770D01*
X154828838Y-119607770D02*
X154876457Y-119655389D01*
X154876457Y-119655389D02*
X154971695Y-119703008D01*
X154971695Y-119703008D02*
X155066933Y-119703008D01*
X155066933Y-119703008D02*
X155162171Y-119655389D01*
X155162171Y-119655389D02*
X155209790Y-119607770D01*
X155209790Y-119607770D02*
X155257409Y-119512532D01*
X155257409Y-119512532D02*
X155257409Y-119179199D01*
X155781219Y-120322056D02*
X155733600Y-120226818D01*
X155733600Y-120226818D02*
X155685980Y-120179199D01*
X155685980Y-120179199D02*
X155590742Y-120131580D01*
X155590742Y-120131580D02*
X155305028Y-120131580D01*
X155305028Y-120131580D02*
X155209790Y-120179199D01*
X155209790Y-120179199D02*
X155162171Y-120226818D01*
X155162171Y-120226818D02*
X155114552Y-120322056D01*
X155114552Y-120322056D02*
X155114552Y-120464913D01*
X155114552Y-120464913D02*
X155162171Y-120560151D01*
X155162171Y-120560151D02*
X155209790Y-120607770D01*
X155209790Y-120607770D02*
X155305028Y-120655389D01*
X155305028Y-120655389D02*
X155590742Y-120655389D01*
X155590742Y-120655389D02*
X155685980Y-120607770D01*
X155685980Y-120607770D02*
X155733600Y-120560151D01*
X155733600Y-120560151D02*
X155781219Y-120464913D01*
X155781219Y-120464913D02*
X155781219Y-120322056D01*
X155781219Y-121512532D02*
X155257409Y-121512532D01*
X155257409Y-121512532D02*
X155162171Y-121464913D01*
X155162171Y-121464913D02*
X155114552Y-121369675D01*
X155114552Y-121369675D02*
X155114552Y-121179199D01*
X155114552Y-121179199D02*
X155162171Y-121083961D01*
X155733600Y-121512532D02*
X155781219Y-121417294D01*
X155781219Y-121417294D02*
X155781219Y-121179199D01*
X155781219Y-121179199D02*
X155733600Y-121083961D01*
X155733600Y-121083961D02*
X155638361Y-121036342D01*
X155638361Y-121036342D02*
X155543123Y-121036342D01*
X155543123Y-121036342D02*
X155447885Y-121083961D01*
X155447885Y-121083961D02*
X155400266Y-121179199D01*
X155400266Y-121179199D02*
X155400266Y-121417294D01*
X155400266Y-121417294D02*
X155352647Y-121512532D01*
X155781219Y-121988723D02*
X155114552Y-121988723D01*
X155305028Y-121988723D02*
X155209790Y-122036342D01*
X155209790Y-122036342D02*
X155162171Y-122083961D01*
X155162171Y-122083961D02*
X155114552Y-122179199D01*
X155114552Y-122179199D02*
X155114552Y-122274437D01*
X155781219Y-123036342D02*
X154781219Y-123036342D01*
X155733600Y-123036342D02*
X155781219Y-122941104D01*
X155781219Y-122941104D02*
X155781219Y-122750628D01*
X155781219Y-122750628D02*
X155733600Y-122655390D01*
X155733600Y-122655390D02*
X155685980Y-122607771D01*
X155685980Y-122607771D02*
X155590742Y-122560152D01*
X155590742Y-122560152D02*
X155305028Y-122560152D01*
X155305028Y-122560152D02*
X155209790Y-122607771D01*
X155209790Y-122607771D02*
X155162171Y-122655390D01*
X155162171Y-122655390D02*
X155114552Y-122750628D01*
X155114552Y-122750628D02*
X155114552Y-122941104D01*
X155114552Y-122941104D02*
X155162171Y-123036342D01*
X158281219Y-105369673D02*
X157281219Y-105369673D01*
X157662171Y-105369673D02*
X157614552Y-105464911D01*
X157614552Y-105464911D02*
X157614552Y-105655387D01*
X157614552Y-105655387D02*
X157662171Y-105750625D01*
X157662171Y-105750625D02*
X157709790Y-105798244D01*
X157709790Y-105798244D02*
X157805028Y-105845863D01*
X157805028Y-105845863D02*
X158090742Y-105845863D01*
X158090742Y-105845863D02*
X158185980Y-105798244D01*
X158185980Y-105798244D02*
X158233600Y-105750625D01*
X158233600Y-105750625D02*
X158281219Y-105655387D01*
X158281219Y-105655387D02*
X158281219Y-105464911D01*
X158281219Y-105464911D02*
X158233600Y-105369673D01*
X157614552Y-106179197D02*
X158281219Y-106417292D01*
X157614552Y-106655387D02*
X158281219Y-106417292D01*
X158281219Y-106417292D02*
X158519314Y-106322054D01*
X158519314Y-106322054D02*
X158566933Y-106274435D01*
X158566933Y-106274435D02*
X158614552Y-106179197D01*
X158281219Y-108369673D02*
X157805028Y-108036340D01*
X158281219Y-107798245D02*
X157281219Y-107798245D01*
X157281219Y-107798245D02*
X157281219Y-108179197D01*
X157281219Y-108179197D02*
X157328838Y-108274435D01*
X157328838Y-108274435D02*
X157376457Y-108322054D01*
X157376457Y-108322054D02*
X157471695Y-108369673D01*
X157471695Y-108369673D02*
X157614552Y-108369673D01*
X157614552Y-108369673D02*
X157709790Y-108322054D01*
X157709790Y-108322054D02*
X157757409Y-108274435D01*
X157757409Y-108274435D02*
X157805028Y-108179197D01*
X157805028Y-108179197D02*
X157805028Y-107798245D01*
X158233600Y-109179197D02*
X158281219Y-109083959D01*
X158281219Y-109083959D02*
X158281219Y-108893483D01*
X158281219Y-108893483D02*
X158233600Y-108798245D01*
X158233600Y-108798245D02*
X158138361Y-108750626D01*
X158138361Y-108750626D02*
X157757409Y-108750626D01*
X157757409Y-108750626D02*
X157662171Y-108798245D01*
X157662171Y-108798245D02*
X157614552Y-108893483D01*
X157614552Y-108893483D02*
X157614552Y-109083959D01*
X157614552Y-109083959D02*
X157662171Y-109179197D01*
X157662171Y-109179197D02*
X157757409Y-109226816D01*
X157757409Y-109226816D02*
X157852647Y-109226816D01*
X157852647Y-109226816D02*
X157947885Y-108750626D01*
X158281219Y-109655388D02*
X157614552Y-109655388D01*
X157281219Y-109655388D02*
X157328838Y-109607769D01*
X157328838Y-109607769D02*
X157376457Y-109655388D01*
X157376457Y-109655388D02*
X157328838Y-109703007D01*
X157328838Y-109703007D02*
X157281219Y-109655388D01*
X157281219Y-109655388D02*
X157376457Y-109655388D01*
X157614552Y-110131578D02*
X158281219Y-110131578D01*
X157709790Y-110131578D02*
X157662171Y-110179197D01*
X157662171Y-110179197D02*
X157614552Y-110274435D01*
X157614552Y-110274435D02*
X157614552Y-110417292D01*
X157614552Y-110417292D02*
X157662171Y-110512530D01*
X157662171Y-110512530D02*
X157757409Y-110560149D01*
X157757409Y-110560149D02*
X158281219Y-110560149D01*
X158281219Y-111179197D02*
X158233600Y-111083959D01*
X158233600Y-111083959D02*
X158185980Y-111036340D01*
X158185980Y-111036340D02*
X158090742Y-110988721D01*
X158090742Y-110988721D02*
X157805028Y-110988721D01*
X157805028Y-110988721D02*
X157709790Y-111036340D01*
X157709790Y-111036340D02*
X157662171Y-111083959D01*
X157662171Y-111083959D02*
X157614552Y-111179197D01*
X157614552Y-111179197D02*
X157614552Y-111322054D01*
X157614552Y-111322054D02*
X157662171Y-111417292D01*
X157662171Y-111417292D02*
X157709790Y-111464911D01*
X157709790Y-111464911D02*
X157805028Y-111512530D01*
X157805028Y-111512530D02*
X158090742Y-111512530D01*
X158090742Y-111512530D02*
X158185980Y-111464911D01*
X158185980Y-111464911D02*
X158233600Y-111417292D01*
X158233600Y-111417292D02*
X158281219Y-111322054D01*
X158281219Y-111322054D02*
X158281219Y-111179197D01*
X157614552Y-112369673D02*
X158281219Y-112369673D01*
X157614552Y-111941102D02*
X158138361Y-111941102D01*
X158138361Y-111941102D02*
X158233600Y-111988721D01*
X158233600Y-111988721D02*
X158281219Y-112083959D01*
X158281219Y-112083959D02*
X158281219Y-112226816D01*
X158281219Y-112226816D02*
X158233600Y-112322054D01*
X158233600Y-112322054D02*
X158185980Y-112369673D01*
X157614552Y-112703007D02*
X157614552Y-113083959D01*
X157281219Y-112845864D02*
X158138361Y-112845864D01*
X158138361Y-112845864D02*
X158233600Y-112893483D01*
X158233600Y-112893483D02*
X158281219Y-112988721D01*
X158281219Y-112988721D02*
X158281219Y-113083959D01*
X158281219Y-114750626D02*
X157805028Y-114417293D01*
X158281219Y-114179198D02*
X157281219Y-114179198D01*
X157281219Y-114179198D02*
X157281219Y-114560150D01*
X157281219Y-114560150D02*
X157328838Y-114655388D01*
X157328838Y-114655388D02*
X157376457Y-114703007D01*
X157376457Y-114703007D02*
X157471695Y-114750626D01*
X157471695Y-114750626D02*
X157614552Y-114750626D01*
X157614552Y-114750626D02*
X157709790Y-114703007D01*
X157709790Y-114703007D02*
X157757409Y-114655388D01*
X157757409Y-114655388D02*
X157805028Y-114560150D01*
X157805028Y-114560150D02*
X157805028Y-114179198D01*
X158281219Y-115322055D02*
X158233600Y-115226817D01*
X158233600Y-115226817D02*
X158185980Y-115179198D01*
X158185980Y-115179198D02*
X158090742Y-115131579D01*
X158090742Y-115131579D02*
X157805028Y-115131579D01*
X157805028Y-115131579D02*
X157709790Y-115179198D01*
X157709790Y-115179198D02*
X157662171Y-115226817D01*
X157662171Y-115226817D02*
X157614552Y-115322055D01*
X157614552Y-115322055D02*
X157614552Y-115464912D01*
X157614552Y-115464912D02*
X157662171Y-115560150D01*
X157662171Y-115560150D02*
X157709790Y-115607769D01*
X157709790Y-115607769D02*
X157805028Y-115655388D01*
X157805028Y-115655388D02*
X158090742Y-115655388D01*
X158090742Y-115655388D02*
X158185980Y-115607769D01*
X158185980Y-115607769D02*
X158233600Y-115560150D01*
X158233600Y-115560150D02*
X158281219Y-115464912D01*
X158281219Y-115464912D02*
X158281219Y-115322055D01*
X158233600Y-116464912D02*
X158281219Y-116369674D01*
X158281219Y-116369674D02*
X158281219Y-116179198D01*
X158281219Y-116179198D02*
X158233600Y-116083960D01*
X158233600Y-116083960D02*
X158138361Y-116036341D01*
X158138361Y-116036341D02*
X157757409Y-116036341D01*
X157757409Y-116036341D02*
X157662171Y-116083960D01*
X157662171Y-116083960D02*
X157614552Y-116179198D01*
X157614552Y-116179198D02*
X157614552Y-116369674D01*
X157614552Y-116369674D02*
X157662171Y-116464912D01*
X157662171Y-116464912D02*
X157757409Y-116512531D01*
X157757409Y-116512531D02*
X157852647Y-116512531D01*
X157852647Y-116512531D02*
X157947885Y-116036341D01*
X158281219Y-117083960D02*
X158233600Y-116988722D01*
X158233600Y-116988722D02*
X158138361Y-116941103D01*
X158138361Y-116941103D02*
X157281219Y-116941103D01*
X158233600Y-117417294D02*
X158281219Y-117512532D01*
X158281219Y-117512532D02*
X158281219Y-117703008D01*
X158281219Y-117703008D02*
X158233600Y-117798246D01*
X158233600Y-117798246D02*
X158138361Y-117845865D01*
X158138361Y-117845865D02*
X158090742Y-117845865D01*
X158090742Y-117845865D02*
X157995504Y-117798246D01*
X157995504Y-117798246D02*
X157947885Y-117703008D01*
X157947885Y-117703008D02*
X157947885Y-117560151D01*
X157947885Y-117560151D02*
X157900266Y-117464913D01*
X157900266Y-117464913D02*
X157805028Y-117417294D01*
X157805028Y-117417294D02*
X157757409Y-117417294D01*
X157757409Y-117417294D02*
X157662171Y-117464913D01*
X157662171Y-117464913D02*
X157614552Y-117560151D01*
X157614552Y-117560151D02*
X157614552Y-117703008D01*
X157614552Y-117703008D02*
X157662171Y-117798246D01*
%LPC*%
D11*
%TO.C,J6*%
X155229912Y-95960000D03*
D12*
X157769912Y-95960000D03*
X155229912Y-98500000D03*
D13*
X157769912Y-98500000D03*
%TD*%
D11*
%TO.C,J5*%
X164090000Y-117300000D03*
D12*
X164090000Y-119840000D03*
D13*
X164090000Y-122380000D03*
D12*
X164090000Y-124920000D03*
%TD*%
D14*
%TO.C,SW1*%
X153169776Y-119338705D03*
D15*
X159669776Y-119338705D03*
%TD*%
D11*
%TO.C,J7*%
X148890000Y-117300000D03*
D12*
X148890000Y-119840000D03*
X148890000Y-122380000D03*
X148890000Y-124920000D03*
%TD*%
D16*
%TO.C,J8*%
X160300000Y-113880000D03*
%TD*%
D17*
%TO.C,J9*%
X152000000Y-102280000D03*
%TD*%
%TO.C,J10*%
X152009409Y-104200000D03*
%TD*%
D11*
%TO.C,J3*%
X164108391Y-96981453D03*
D13*
X164108391Y-99521453D03*
D12*
X164108391Y-102061453D03*
X164108391Y-104601453D03*
X164108391Y-107141453D03*
X164108391Y-109681453D03*
X164108391Y-112221453D03*
%TD*%
D16*
%TO.C,J4*%
X162200000Y-113880000D03*
%TD*%
D11*
%TO.C,J2*%
X148886092Y-112221453D03*
D12*
X148886092Y-109681453D03*
X148886092Y-107141453D03*
X148886092Y-104601453D03*
X148886092Y-102061453D03*
X148886092Y-99521453D03*
X148886092Y-96981453D03*
%TD*%
%LPD*%
M02*
