%TF.GenerationSoftware,KiCad,Pcbnew,8.0.3*%
%TF.CreationDate,2024-08-13T20:23:53+02:00*%
%TF.ProjectId,xiao_nrf52840_breakout,7869616f-5f6e-4726-9635-323834305f62,rev?*%
%TF.SameCoordinates,Original*%
%TF.FileFunction,Copper,L1,Top*%
%TF.FilePolarity,Positive*%
%FSLAX46Y46*%
G04 Gerber Fmt 4.6, Leading zero omitted, Abs format (unit mm)*
G04 Created by KiCad (PCBNEW 8.0.3) date 2024-08-13 20:23:53*
%MOMM*%
%LPD*%
G01*
G04 APERTURE LIST*
%TA.AperFunction,Conductor*%
%ADD10C,0.200000*%
%TD*%
%TA.AperFunction,Conductor*%
%ADD11C,0.001000*%
%TD*%
%TA.AperFunction,ComponentPad*%
%ADD12C,1.700000*%
%TD*%
%TA.AperFunction,ComponentPad*%
%ADD13O,1.700000X1.700000*%
%TD*%
%TA.AperFunction,ComponentPad*%
%ADD14R,1.700000X1.700000*%
%TD*%
%TA.AperFunction,ComponentPad*%
%ADD15C,2.250000*%
%TD*%
%TA.AperFunction,ComponentPad*%
%ADD16R,2.250000X2.250000*%
%TD*%
%TA.AperFunction,ComponentPad*%
%ADD17R,1.400000X1.700000*%
%TD*%
%TA.AperFunction,ComponentPad*%
%ADD18R,1.700000X1.400000*%
%TD*%
%TA.AperFunction,SMDPad,CuDef*%
%ADD19R,0.800000X1.600000*%
%TD*%
%TA.AperFunction,SMDPad,CuDef*%
%ADD20R,2.100000X3.000000*%
%TD*%
%TA.AperFunction,ViaPad*%
%ADD21C,1.300000*%
%TD*%
%TA.AperFunction,ViaPad*%
%ADD22C,0.600000*%
%TD*%
%TA.AperFunction,Conductor*%
%ADD23C,0.400000*%
%TD*%
G04 APERTURE END LIST*
%TO.N,BAT+*%
D10*
X157600000Y-123400000D02*
X157700000Y-123400000D01*
X157700000Y-123600000D01*
X157600000Y-123600000D01*
X157600000Y-123400000D01*
D11*
%TO.N,BAT-*%
X155500000Y-123600000D02*
X155300000Y-123600000D01*
X155300000Y-123300000D01*
X155500000Y-123600000D01*
%TA.AperFunction,Conductor*%
G36*
X155500000Y-123600000D02*
G01*
X155300000Y-123600000D01*
X155300000Y-123300000D01*
X155500000Y-123600000D01*
G37*
%TD.AperFunction*%
%TD*%
D12*
%TO.P,J6,1,Pin_1*%
%TO.N,SWCLK*%
X155229912Y-95960000D03*
D13*
%TO.P,J6,2,Pin_2*%
%TO.N,RESET*%
X157769912Y-95960000D03*
%TO.P,J6,3,Pin_3*%
%TO.N,SWDIO*%
X155229912Y-98500000D03*
D14*
%TO.P,J6,4,Pin_4*%
%TO.N,GND*%
X157769912Y-98500000D03*
%TD*%
D12*
%TO.P,J5,1,Pin_1*%
%TO.N,Net-(J4-Pin_1)*%
X164090000Y-117300000D03*
D13*
%TO.P,J5,2,Pin_2*%
%TO.N,Net-(J5-Pin_2)*%
X164090000Y-119840000D03*
D14*
%TO.P,J5,3,Pin_3*%
%TO.N,GND*%
X164090000Y-122380000D03*
D13*
%TO.P,J5,4,Pin_4*%
%TO.N,BAT+*%
X164090000Y-124920000D03*
%TD*%
D15*
%TO.P,SW1,1,1*%
%TO.N,RESET*%
X153169776Y-119338705D03*
D16*
%TO.P,SW1,2,2*%
%TO.N,GND*%
X159669776Y-119338705D03*
%TD*%
D12*
%TO.P,J7,1,Pin_1*%
%TO.N,SWCLK*%
X148890000Y-117300000D03*
D13*
%TO.P,J7,2,Pin_2*%
%TO.N,SWDIO*%
X148890000Y-119840000D03*
%TO.P,J7,3,Pin_3*%
%TO.N,RESET*%
X148890000Y-122380000D03*
%TO.P,J7,4,Pin_4*%
%TO.N,BAT-*%
X148890000Y-124920000D03*
%TD*%
D17*
%TO.P,J8,1,Pin_1*%
%TO.N,Net-(J5-Pin_2)*%
X160300000Y-113880000D03*
%TD*%
D18*
%TO.P,J9,1,Pin_1*%
%TO.N,BAT-*%
X152000000Y-102280000D03*
%TD*%
%TO.P,J10,1,Pin_1*%
%TO.N,BAT+*%
X152009409Y-104200000D03*
%TD*%
D12*
%TO.P,J3,1,Pin_1*%
%TO.N,Net-(J3-Pin_1)*%
X164108391Y-96981453D03*
D14*
%TO.P,J3,2,Pin_2*%
%TO.N,Net-(J3-Pin_2)*%
X164108391Y-99521453D03*
D13*
%TO.P,J3,3,Pin_3*%
%TO.N,Net-(J3-Pin_3)*%
X164108391Y-102061453D03*
%TO.P,J3,4,Pin_4*%
%TO.N,Net-(J3-Pin_4)*%
X164108391Y-104601453D03*
%TO.P,J3,5,Pin_5*%
%TO.N,Net-(J3-Pin_5)*%
X164108391Y-107141453D03*
%TO.P,J3,6,Pin_6*%
%TO.N,Net-(J3-Pin_6)*%
X164108391Y-109681453D03*
%TO.P,J3,7,Pin_7*%
%TO.N,Net-(J3-Pin_7)*%
X164108391Y-112221453D03*
%TD*%
D19*
%TO.P,J1,1,1*%
%TO.N,BAT-*%
X155880000Y-123740000D03*
%TO.P,J1,2,2*%
%TO.N,BAT+*%
X157130000Y-123740000D03*
D20*
%TO.P,J1,MP1,MP1*%
%TO.N,unconnected-(J1-PadMP1)*%
X153330000Y-126640000D03*
%TO.P,J1,MP2,MP2*%
%TO.N,unconnected-(J1-PadMP2)*%
X159680000Y-126640000D03*
%TD*%
D17*
%TO.P,J4,1,Pin_1*%
%TO.N,Net-(J4-Pin_1)*%
X162200000Y-113880000D03*
%TD*%
D12*
%TO.P,J2,1,Pin_1*%
%TO.N,Net-(J2-Pin_1)*%
X148886092Y-112221453D03*
D13*
%TO.P,J2,2,Pin_2*%
%TO.N,Net-(J2-Pin_2)*%
X148886092Y-109681453D03*
%TO.P,J2,3,Pin_3*%
%TO.N,Net-(J2-Pin_3)*%
X148886092Y-107141453D03*
%TO.P,J2,4,Pin_4*%
%TO.N,Net-(J2-Pin_4)*%
X148886092Y-104601453D03*
%TO.P,J2,5,Pin_5*%
%TO.N,Net-(J2-Pin_5)*%
X148886092Y-102061453D03*
%TO.P,J2,6,Pin_6*%
%TO.N,Net-(J2-Pin_6)*%
X148886092Y-99521453D03*
%TO.P,J2,7,Pin_7*%
%TO.N,Net-(J2-Pin_7)*%
X148886092Y-96981453D03*
%TD*%
D21*
%TO.N,*%
X148886092Y-114761453D03*
X164108391Y-114761453D03*
D22*
%TO.N,RESET*%
X160870000Y-96210000D03*
%TO.N,BAT-*%
X155500000Y-122000000D03*
X155500000Y-102500000D03*
%TO.N,BAT+*%
X156500000Y-105000000D03*
X157580000Y-122250000D03*
%TD*%
D10*
%TO.N,Net-(J5-Pin_2)*%
X160300000Y-113880000D02*
X160300000Y-116050000D01*
X160300000Y-116050000D02*
X164090000Y-119840000D01*
%TO.N,Net-(J4-Pin_1)*%
X162600000Y-117300000D02*
X164090000Y-117300000D01*
X162600000Y-115200000D02*
X163000000Y-115200000D01*
X163300000Y-115700000D02*
X163000000Y-116000000D01*
X161200000Y-115400000D02*
X161200000Y-115900000D01*
X162400000Y-116000000D02*
X161800000Y-115400000D01*
X162200000Y-113880000D02*
X162200000Y-114800000D01*
X163300000Y-115500000D02*
X163300000Y-115700000D01*
X163000000Y-115200000D02*
X163300000Y-115500000D01*
X161200000Y-115900000D02*
X162600000Y-117300000D01*
X163000000Y-116000000D02*
X162400000Y-116000000D01*
X162200000Y-114800000D02*
X162600000Y-115200000D01*
X161800000Y-115400000D02*
X161200000Y-115400000D01*
D23*
%TO.N,GND*%
X160950000Y-122380000D02*
X164090000Y-122380000D01*
X157769912Y-98500000D02*
X157769912Y-117438841D01*
D10*
X159669776Y-121060224D02*
X159650000Y-121080000D01*
D23*
X159669776Y-119338705D02*
X159669776Y-121060224D01*
X159650000Y-121080000D02*
X160950000Y-122380000D01*
X157769912Y-117438841D02*
X159669776Y-119338705D01*
D10*
%TO.N,RESET*%
X153169776Y-121079776D02*
X153180000Y-121090000D01*
X160620000Y-95960000D02*
X160870000Y-96210000D01*
X151890000Y-122380000D02*
X148890000Y-122380000D01*
X153180000Y-121090000D02*
X151890000Y-122380000D01*
X157769912Y-95960000D02*
X160620000Y-95960000D01*
X153169776Y-119338705D02*
X153169776Y-121079776D01*
%TO.N,SWCLK*%
X150500000Y-100689912D02*
X150500000Y-106000000D01*
X151000000Y-115190000D02*
X148890000Y-117300000D01*
X151000000Y-106500000D02*
X151000000Y-115190000D01*
X155229912Y-95960000D02*
X150500000Y-100689912D01*
X150500000Y-106000000D02*
X151000000Y-106500000D01*
D23*
%TO.N,BAT-*%
X155500000Y-102500000D02*
X155280000Y-102280000D01*
X150070000Y-123740000D02*
X148890000Y-124920000D01*
X155880000Y-123740000D02*
X150070000Y-123740000D01*
X155280000Y-102280000D02*
X152000000Y-102280000D01*
X155500000Y-123360000D02*
X155880000Y-123740000D01*
X155500000Y-122000000D02*
X155500000Y-123360000D01*
%TO.N,BAT+*%
X152009409Y-104200000D02*
X155700000Y-104200000D01*
X156000000Y-104500000D02*
X156500000Y-105000000D01*
X157580000Y-122250000D02*
X157580000Y-123376071D01*
X157580000Y-123376071D02*
X157125000Y-123831071D01*
X157130000Y-123740000D02*
X162910000Y-123740000D01*
X155700000Y-104200000D02*
X156000000Y-104500000D01*
X162910000Y-123740000D02*
X164090000Y-124920000D01*
%TD*%
M02*
